<?xml version="1.0" encoding="UTF-8" standalone="no"?>
<svg
   version="1.1"
   viewBox="-10 0 48 48"
   id="svg1"
   width="48"
   height="48"
   sodipodi:docname="logo-small.svg"
   inkscape:version="1.4.3 (0d15f75042, 2025-12-25)"
   xml:space="preserve"
   inkscape:export-filename="com.gitlab.surferproject.surfer.png"
   inkscape:export-xdpi="512"
   inkscape:export-ydpi="512"
   xmlns:inkscape="http://www.inkscape.org/namespaces/inkscape"
   xmlns:sodipodi="http://sodipodi.sourceforge.net/DTD/sodipodi-0.dtd"
   xmlns:xlink="http://www.w3.org/1999/xlink"
   xmlns="http://www.w3.org/2000/svg"
   xmlns:svg="http://www.w3.org/2000/svg"><sodipodi:namedview
     id="namedview1"
     pagecolor="#ffffff"
     bordercolor="#000000"
     borderopacity="0.25"
     inkscape:showpageshadow="2"
     inkscape:pageopacity="0.0"
     inkscape:pagecheckerboard="0"
     inkscape:deskcolor="#d1d1d1"
     inkscape:zoom="18.847103"
     inkscape:cx="23.053941"
     inkscape:cy="26.078278"
     inkscape:window-width="2560"
     inkscape:window-height="1412"
     inkscape:window-x="5440"
     inkscape:window-y="0"
     inkscape:window-maximized="1"
     inkscape:current-layer="svg1"
     showguides="true"><sodipodi:guide
       position="0.53901444,44"
       orientation="0,1"
       id="guide3"
       inkscape:locked="false"
       inkscape:label=""
       inkscape:color="rgb(0,134,229)" /><sodipodi:guide
       position="0,4"
       orientation="0,1"
       id="guide4"
       inkscape:locked="false"
       inkscape:label=""
       inkscape:color="rgb(0,134,229)" /><sodipodi:guide
       position="4,47.662326"
       orientation="-1,0"
       id="guide5"
       inkscape:locked="false"
       inkscape:label=""
       inkscape:color="rgb(0,134,229)" /><sodipodi:guide
       position="44,47.841296"
       orientation="-1,0"
       id="guide6"
       inkscape:locked="false"
       inkscape:label=""
       inkscape:color="rgb(0,134,229)" /></sodipodi:namedview><defs
     id="defs1"><linearGradient
       id="linearGradient6"
       inkscape:collect="always"><stop
         style="stop-color:#e5eef5;stop-opacity:1;"
         offset="0"
         id="stop6" /><stop
         style="stop-color:#afcae0;stop-opacity:1;"
         offset="1"
         id="stop7" /></linearGradient><clipPath
       clipPathUnits="userSpaceOnUse"
       id="clipPath11"><ellipse
         style="fill:url(#linearGradient12);fill-opacity:1;stroke:none;stroke-width:1.03819;stroke-dasharray:none"
         id="ellipse12"
         cx="14"
         cy="23.5"
         rx="20"
         ry="19.5" /></clipPath><linearGradient
       inkscape:collect="always"
       xlink:href="#linearGradient6"
       id="linearGradient12"
       gradientUnits="userSpaceOnUse"
       x1="3.6992421"
       y1="6.3566527"
       x2="24.300762"
       y2="40.643341" /></defs><path
     style="baseline-shift:baseline;display:inline;overflow:visible;fill:#000000;stroke:#ffffff;stroke-width:1.44887;stroke-dasharray:none;stroke-opacity:1;enable-background:accumulate;stop-color:#000000"
     d="m 24.86485,26.724736 c -1.838331,0 -3.760497,0.207288 -5.768234,0.61877 -1.998738,0.409633 -3.979389,0.970285 -5.939726,1.682497 -1.956176,0.710701 -3.8134318,1.529432 -5.5712462,2.454223 -1.7579877,0.924888 -3.3266712,1.910551 -4.7068223,2.961752 -1.3857858,1.055497 -2.50231416,2.137137 -3.33718567,3.265344 -0.84952403,1.148 -1.33719183,2.343074 -1.33719193,3.552712 0,1.575947 0.88731334,2.966563 2.34066506,3.860939 1.46687604,0.90269 3.36385744,1.300112 5.65699324,1.300112 1.8528455,0 3.7819802,-0.211399 5.7844558,-0.630358 1.993635,-0.417111 3.974154,-0.992982 5.942043,-1.72653 1.962568,-0.731566 3.820317,-1.566197 5.571248,-2.505208 1.751688,-0.939412 3.317611,-1.944879 4.697551,-3.017371 1.385574,-1.07687 2.496119,-2.175658 3.323281,-3.318646 0.839639,-1.160231 1.320968,-2.356824 1.320968,-3.5643 0,-1.575951 -0.908059,-2.952647 -2.377744,-3.76824 -1.460579,-0.810538 -3.330295,-1.165696 -5.599055,-1.165696 z"
     id="path2"
     sodipodi:nodetypes="sssssssssssssssss" /><rect
     style="display:none;fill:#152839;stroke:none;stroke-width:1.83969"
     id="rect1"
     width="48"
     height="48"
     x="-10"
     y="0" /><path
     id="path1"
     style="fill:#000000;fill-opacity:1;stroke:#56c126;stroke-width:3.3711;stroke-dasharray:none;stroke-opacity:1"
     sodipodi:type="inkscape:offset"
     inkscape:radius="0.50397885"
     inkscape:original="M 15.417969 5.6015625 C 14.476308 5.6015625 13.616792 5.8318109 12.837891 6.2910156 C 12.058986 6.7502202 11.43572 7.3695331 10.970703 8.1484375 C 10.505686 8.9273421 10.273438 9.7868553 10.273438 10.728516 C 10.273437 11.228409 10.34687 11.724671 10.492188 12.21875 C 10.637505 12.712833 10.855847 13.211042 11.146484 13.710938 C 9.4375447 13.397048 8.0222445 12.871026 6.9003906 12.132812 C 5.7785361 11.394598 5.1294597 10.600609 4.9550781 9.7519531 C 4.8388234 9.1358042 4.6323859 8.6852151 4.3359375 8.4003906 C 4.0394878 8.1155673 3.6702813 7.9726562 3.2285156 7.9726562 C 2.6123675 7.9726563 2.1339656 8.2326665 1.7910156 8.75 C 1.448065 9.2673322 1.2753906 9.9144528 1.2753906 10.693359 C 1.2753906 11.669894 1.507639 12.477789 1.9726562 13.117188 C 2.4376743 13.756586 3.0133181 14.292516 3.6992188 14.722656 C 4.3851193 15.152798 5.0679596 15.537907 5.7480469 15.880859 C 6.4281363 16.223809 7.001779 16.581113 7.4667969 16.953125 C 7.9318134 17.325139 8.1640625 17.779683 8.1640625 18.314453 C 8.1640625 18.849224 8.0906295 19.399058 7.9453125 19.962891 C 7.7999919 20.526723 7.7285156 21.140087 7.7285156 21.802734 C 7.7285156 23.407044 7.9786233 24.713196 8.4785156 25.724609 C 8.9784096 26.736021 9.7565384 27.585584 10.814453 28.271484 L 13.046875 29.736328 C 12.628357 30.619865 12.290915 31.465471 12.035156 32.273438 C 11.779396 33.081407 11.652344 33.776149 11.652344 34.357422 C 11.652344 34.845691 11.902451 35.284371 12.402344 35.673828 C 12.902238 36.063279 13.523552 36.257812 14.267578 36.257812 C 14.802352 36.257812 15.209272 36.14862 15.488281 35.927734 C 15.767292 35.706851 15.90625 35.44484 15.90625 35.142578 C 15.90625 34.875193 15.816916 34.61518 15.636719 34.365234 C 15.456524 34.115286 15.208417 33.875091 14.894531 33.642578 L 16.011719 30.277344 C 16.116342 29.951833 16.092535 29.57272 15.941406 29.142578 C 15.790274 28.712438 15.619555 28.285657 15.427734 27.861328 C 15.235915 27.436999 15.138672 27.085652 15.138672 26.806641 C 15.138672 26.283498 15.482068 26.021484 16.167969 26.021484 C 16.72599 26.021484 17.170625 26.184252 17.501953 26.509766 C 17.833279 26.835279 18 27.305727 18 27.921875 C 18 28.235761 17.906712 28.626783 17.720703 29.091797 C 17.534695 29.556817 17.348117 30.007406 17.162109 30.443359 C 16.9761 30.879314 16.882812 31.22471 16.882812 31.480469 C 16.882812 31.875736 17.103158 32.181413 17.544922 32.396484 C 17.986693 32.611562 18.562331 32.71875 19.271484 32.71875 C 19.910881 32.71875 20.425002 32.6056 20.814453 32.378906 C 21.203904 32.15221 21.400391 31.852482 21.400391 31.480469 C 21.400391 31.131703 21.277337 30.826022 21.033203 30.564453 C 20.789068 30.302879 20.475435 30.132161 20.091797 30.050781 C 20.242928 29.678771 20.39179 29.242083 20.537109 28.742188 C 20.682427 28.242293 20.803534 27.761941 20.902344 27.302734 C 21.001161 26.843532 21.050781 26.498133 21.050781 26.265625 C 21.050781 25.812234 20.931681 25.415218 20.693359 25.072266 C 20.455041 24.729317 19.952826 24.324394 19.185547 23.859375 C 18.348516 23.347858 17.772871 22.865501 17.458984 22.412109 C 17.145097 21.958717 16.988281 21.418791 16.988281 20.791016 C 16.988281 19.233208 18.046282 18.046201 20.162109 17.232422 C 22.184937 16.453518 23.759049 15.625769 24.886719 14.748047 C 26.014385 13.870327 26.578125 12.93738 26.578125 11.949219 C 26.578125 11.391198 26.425259 10.914795 26.117188 10.519531 C 25.80911 10.124267 25.364474 9.9257812 24.783203 9.9257812 C 24.213555 9.9257813 23.759014 10.136171 23.421875 10.554688 C 23.084739 10.973202 22.846534 11.564753 22.707031 12.332031 C 22.335017 12.645918 21.965812 12.925788 21.599609 13.169922 C 21.233411 13.414057 20.820534 13.652258 20.361328 13.884766 C 19.902124 14.117275 19.34829 14.379288 18.697266 14.669922 C 18.987903 14.437415 19.275725 14.094018 19.560547 13.640625 C 19.845374 13.187234 20.079622 12.696928 20.265625 12.167969 C 20.451637 11.639012 20.544922 11.158657 20.544922 10.728516 C 20.544922 9.7868553 20.314676 8.9273421 19.855469 8.1484375 C 19.396264 7.3695331 18.778901 6.7502202 18 6.2910156 C 17.221095 5.8318109 16.359631 5.6015625 15.417969 5.6015625 z "
     d="m 15.417969,5.0976562 c -1.023814,0 -1.980798,0.2556138 -2.835938,0.7597657 -0.848356,0.5001494 -1.538576,1.185073 -2.044922,2.0332031 -0.510806,0.8556027 -0.7675777,1.8133635 -0.7675777,2.837891 -1.1e-6,0.549249 0.080155,1.095184 0.2382817,1.632812 0.05848,0.198843 0.180274,0.39557 0.259765,0.59375 C 9.0686823,12.648189 8.0030946,12.25405 7.1777344,11.710938 6.1199321,11.014872 5.5864477,10.318237 5.4492187,9.6503906 5.3207672,8.9752916 5.0875052,8.4233067 4.6855469,8.0371094 4.2990801,7.6657994 3.7789727,7.46875 3.2285156,7.46875 2.4705839,7.4687501 1.7903366,7.8382834 1.3710937,8.4707031 0.96424515,9.0844238 0.77148437,9.839969 0.77148437,10.693359 c 0,1.056443 0.25612653,1.982545 0.79296873,2.720704 0.5025923,0.691062 1.1291819,1.273512 1.8671875,1.736328 0.6987421,0.438195 1.3954186,0.829505 2.0898438,1.179687 0.6561633,0.330885 1.2007968,0.671577 1.6308593,1.015625 0.3725627,0.298051 0.5078126,0.579898 0.5078125,0.96875 0,0.488635 -0.06733,0.996549 -0.203125,1.523438 -0.1573993,0.610696 -0.2324218,1.265955 -0.2324218,1.964843 0,1.65669 0.2560617,3.03847 0.8027344,4.144532 0.5422703,1.09715 1.3910175,2.020172 2.5136722,2.748046 l 1.886718,1.238282 c -0.337666,0.749157 -0.651124,1.486424 -0.873046,2.1875 -0.266353,0.841433 -0.40625,1.581617 -0.40625,2.236328 0,0.660372 0.363018,1.262711 0.943359,1.714844 0.595417,0.46387 1.343908,0.689453 2.175781,0.689453 0.603377,0 1.130596,-0.120717 1.533203,-0.439453 0.367233,-0.290726 0.609375,-0.722964 0.609375,-1.179688 0,-0.379639 -0.134283,-0.751919 -0.365234,-1.072266 -0.148008,-0.205301 -0.367115,-0.380983 -0.574219,-0.5625 l 1.019531,-3.072265 a 0.50402925,0.50402925 0 0 0 0.002,-0.0039 c 0.146321,-0.455243 0.10017,-0.955131 -0.07617,-1.457032 -0.155919,-0.443762 -0.331461,-0.882677 -0.529297,-1.320312 -0.175141,-0.387435 -0.244141,-0.685746 -0.244141,-0.847656 0,-0.1513 0.01573,-0.1548 0.05859,-0.1875 0.04287,-0.0327 0.18802,-0.09375 0.466797,-0.09375 0.460018,0 0.75002,0.117345 0.980468,0.34375 0.218452,0.214619 0.347657,0.527499 0.347657,1.052734 0,0.21403 -0.07273,0.553913 -0.244141,0.982422 -0.184541,0.461352 -0.368178,0.909247 -0.552734,1.341797 -0.199847,0.468387 -0.320313,0.856065 -0.320313,1.234375 0,0.582566 0.393872,1.100674 0.945313,1.36914 0.537438,0.261654 1.187328,0.373047 1.947265,0.373047 0.698855,0 1.303777,-0.121177 1.796875,-0.408203 0.492676,-0.286782 0.835938,-0.784513 0.835938,-1.333984 0,-0.467311 -0.18182,-0.91677 -0.501953,-1.259766 -0.185052,-0.19827 -0.460125,-0.26894 -0.705078,-0.386719 0.109409,-0.300115 0.219738,-0.591762 0.324218,-0.951172 0.148524,-0.510922 0.271627,-1.003269 0.373047,-1.474609 0.102452,-0.476093 0.160156,-0.838367 0.160156,-1.142578 0,-0.54165 -0.149832,-1.052454 -0.447265,-1.480469 -0.321161,-0.462163 -0.865046,-0.874555 -1.658203,-1.355469 l -0.002,-0.002 c -0.802639,-0.490868 -1.329583,-0.94937 -1.574219,-1.302734 -0.252016,-0.364023 -0.38086,-0.790137 -0.38086,-1.333984 0,-0.66481 0.209989,-1.211265 0.666016,-1.722657 0.456027,-0.511391 1.177993,-0.977713 2.185547,-1.365234 2.052745,-0.790424 3.665698,-1.633623 4.851562,-2.556641 1.20002,-0.934036 1.886719,-2.017426 1.886719,-3.197265 0,-0.650062 -0.187324,-1.253862 -0.566406,-1.740235 -0.402327,-0.5161848 -1.036422,-0.787109 -1.732422,-0.787109 -0.693738,10e-8 -1.329703,0.2898094 -1.753906,0.816406 -0.371641,0.461347 -0.605443,1.075265 -0.759766,1.794922 -0.319947,0.264112 -0.638043,0.509348 -0.949219,0.716797 -0.313669,0.209115 -0.680691,0.416984 -1.074218,0.621094 0.176525,-0.337434 0.36409,-0.665317 0.49414,-1.035156 0.200196,-0.569292 0.308594,-1.104416 0.308594,-1.607422 0,-1.0238132 -0.255611,-1.9807942 -0.759766,-2.8359379 C 19.788851,7.0441181 19.10517,6.3581371 18.255859,5.8574219 17.400399,5.353084 16.441784,5.0976562 15.417969,5.0976562 Z"
     transform="matrix(1.1865549,0,0,1.1865549,-3.2597222,-3.9069922)" /><path
     id="path3"
     style="fill:#000000;fill-opacity:1;stroke:#0000ff;stroke-width:0;stroke-dasharray:none;stroke-opacity:1"
     sodipodi:type="inkscape:offset"
     inkscape:radius="0.50397885"
     inkscape:original="M 15.417969 5.6015625 C 14.476308 5.6015625 13.616792 5.8318109 12.837891 6.2910156 C 12.058986 6.7502202 11.43572 7.3695331 10.970703 8.1484375 C 10.505686 8.9273421 10.273438 9.7868553 10.273438 10.728516 C 10.273437 11.228409 10.34687 11.724671 10.492188 12.21875 C 10.637505 12.712833 10.855847 13.211042 11.146484 13.710938 C 9.4375447 13.397048 8.0222445 12.871026 6.9003906 12.132812 C 5.7785361 11.394598 5.1294597 10.600609 4.9550781 9.7519531 C 4.8388234 9.1358042 4.6323859 8.6852151 4.3359375 8.4003906 C 4.0394878 8.1155673 3.6702813 7.9726562 3.2285156 7.9726562 C 2.6123675 7.9726563 2.1339656 8.2326665 1.7910156 8.75 C 1.448065 9.2673322 1.2753906 9.9144528 1.2753906 10.693359 C 1.2753906 11.669894 1.507639 12.477789 1.9726562 13.117188 C 2.4376743 13.756586 3.0133181 14.292516 3.6992188 14.722656 C 4.3851193 15.152798 5.0679596 15.537907 5.7480469 15.880859 C 6.4281363 16.223809 7.001779 16.581113 7.4667969 16.953125 C 7.9318134 17.325139 8.1640625 17.779683 8.1640625 18.314453 C 8.1640625 18.849224 8.0906295 19.399058 7.9453125 19.962891 C 7.7999919 20.526723 7.7285156 21.140087 7.7285156 21.802734 C 7.7285156 23.407044 7.9786233 24.713196 8.4785156 25.724609 C 8.9784096 26.736021 9.7565384 27.585584 10.814453 28.271484 L 13.046875 29.736328 C 12.628357 30.619865 12.290915 31.465471 12.035156 32.273438 C 11.779396 33.081407 11.652344 33.776149 11.652344 34.357422 C 11.652344 34.845691 11.902451 35.284371 12.402344 35.673828 C 12.902238 36.063279 13.523552 36.257812 14.267578 36.257812 C 14.802352 36.257812 15.209272 36.14862 15.488281 35.927734 C 15.767292 35.706851 15.90625 35.44484 15.90625 35.142578 C 15.90625 34.875193 15.816916 34.61518 15.636719 34.365234 C 15.456524 34.115286 15.208417 33.875091 14.894531 33.642578 L 16.011719 30.277344 C 16.116342 29.951833 16.092535 29.57272 15.941406 29.142578 C 15.790274 28.712438 15.619555 28.285657 15.427734 27.861328 C 15.235915 27.436999 15.138672 27.085652 15.138672 26.806641 C 15.138672 26.283498 15.482068 26.021484 16.167969 26.021484 C 16.72599 26.021484 17.170625 26.184252 17.501953 26.509766 C 17.833279 26.835279 18 27.305727 18 27.921875 C 18 28.235761 17.906712 28.626783 17.720703 29.091797 C 17.534695 29.556817 17.348117 30.007406 17.162109 30.443359 C 16.9761 30.879314 16.882812 31.22471 16.882812 31.480469 C 16.882812 31.875736 17.103158 32.181413 17.544922 32.396484 C 17.986693 32.611562 18.562331 32.71875 19.271484 32.71875 C 19.910881 32.71875 20.425002 32.6056 20.814453 32.378906 C 21.203904 32.15221 21.400391 31.852482 21.400391 31.480469 C 21.400391 31.131703 21.277337 30.826022 21.033203 30.564453 C 20.789068 30.302879 20.475435 30.132161 20.091797 30.050781 C 20.242928 29.678771 20.39179 29.242083 20.537109 28.742188 C 20.682427 28.242293 20.803534 27.761941 20.902344 27.302734 C 21.001161 26.843532 21.050781 26.498133 21.050781 26.265625 C 21.050781 25.812234 20.931681 25.415218 20.693359 25.072266 C 20.455041 24.729317 19.952826 24.324394 19.185547 23.859375 C 18.348516 23.347858 17.772871 22.865501 17.458984 22.412109 C 17.145097 21.958717 16.988281 21.418791 16.988281 20.791016 C 16.988281 19.233208 18.046282 18.046201 20.162109 17.232422 C 22.184937 16.453518 23.759049 15.625769 24.886719 14.748047 C 26.014385 13.870327 26.578125 12.93738 26.578125 11.949219 C 26.578125 11.391198 26.425259 10.914795 26.117188 10.519531 C 25.80911 10.124267 25.364474 9.9257812 24.783203 9.9257812 C 24.213555 9.9257813 23.759014 10.136171 23.421875 10.554688 C 23.084739 10.973202 22.846534 11.564753 22.707031 12.332031 C 22.335017 12.645918 21.965812 12.925788 21.599609 13.169922 C 21.233411 13.414057 20.820534 13.652258 20.361328 13.884766 C 19.902124 14.117275 19.34829 14.379288 18.697266 14.669922 C 18.987903 14.437415 19.275725 14.094018 19.560547 13.640625 C 19.845374 13.187234 20.079622 12.696928 20.265625 12.167969 C 20.451637 11.639012 20.544922 11.158657 20.544922 10.728516 C 20.544922 9.7868553 20.314676 8.9273421 19.855469 8.1484375 C 19.396264 7.3695331 18.778901 6.7502202 18 6.2910156 C 17.221095 5.8318109 16.359631 5.6015625 15.417969 5.6015625 z "
     d="m 15.417969,5.0976562 c -1.023814,0 -1.980798,0.2556138 -2.835938,0.7597657 -0.848356,0.5001494 -1.538576,1.185073 -2.044922,2.0332031 -0.510806,0.8556027 -0.7675777,1.8133635 -0.7675777,2.837891 -1.1e-6,0.549249 0.080155,1.095184 0.2382817,1.632812 0.05848,0.198843 0.180274,0.39557 0.259765,0.59375 C 9.0686823,12.648189 8.0030946,12.25405 7.1777344,11.710938 6.1199321,11.014872 5.5864477,10.318237 5.4492187,9.6503906 5.3207672,8.9752916 5.0875052,8.4233067 4.6855469,8.0371094 4.2990801,7.6657994 3.7789727,7.46875 3.2285156,7.46875 2.4705839,7.4687501 1.7903366,7.8382834 1.3710937,8.4707031 0.96424515,9.0844238 0.77148437,9.839969 0.77148437,10.693359 c 0,1.056443 0.25612653,1.982545 0.79296873,2.720704 0.5025923,0.691062 1.1291819,1.273512 1.8671875,1.736328 0.6987421,0.438195 1.3954186,0.829505 2.0898438,1.179687 0.6561633,0.330885 1.2007968,0.671577 1.6308593,1.015625 0.3725627,0.298051 0.5078126,0.579898 0.5078125,0.96875 0,0.488635 -0.06733,0.996549 -0.203125,1.523438 -0.1573993,0.610696 -0.2324218,1.265955 -0.2324218,1.964843 0,1.65669 0.2560617,3.03847 0.8027344,4.144532 0.5422703,1.09715 1.3910175,2.020172 2.5136722,2.748046 l 1.886718,1.238282 c -0.337666,0.749157 -0.651124,1.486424 -0.873046,2.1875 -0.266353,0.841433 -0.40625,1.581617 -0.40625,2.236328 0,0.660372 0.363018,1.262711 0.943359,1.714844 0.595417,0.46387 1.343908,0.689453 2.175781,0.689453 0.603377,0 1.130596,-0.120717 1.533203,-0.439453 0.367233,-0.290726 0.609375,-0.722964 0.609375,-1.179688 0,-0.379639 -0.134283,-0.751919 -0.365234,-1.072266 -0.148008,-0.205301 -0.367115,-0.380983 -0.574219,-0.5625 l 1.019531,-3.072265 a 0.50402925,0.50402925 0 0 0 0.002,-0.0039 c 0.146321,-0.455243 0.10017,-0.955131 -0.07617,-1.457032 -0.155919,-0.443762 -0.331461,-0.882677 -0.529297,-1.320312 -0.175141,-0.387435 -0.244141,-0.685746 -0.244141,-0.847656 0,-0.1513 0.01573,-0.1548 0.05859,-0.1875 0.04287,-0.0327 0.18802,-0.09375 0.466797,-0.09375 0.460018,0 0.75002,0.117345 0.980468,0.34375 0.218452,0.214619 0.347657,0.527499 0.347657,1.052734 0,0.21403 -0.07273,0.553913 -0.244141,0.982422 -0.184541,0.461352 -0.368178,0.909247 -0.552734,1.341797 -0.199847,0.468387 -0.320313,0.856065 -0.320313,1.234375 0,0.582566 0.393872,1.100674 0.945313,1.36914 0.537438,0.261654 1.187328,0.373047 1.947265,0.373047 0.698855,0 1.303777,-0.121177 1.796875,-0.408203 0.492676,-0.286782 0.835938,-0.784513 0.835938,-1.333984 0,-0.467311 -0.18182,-0.91677 -0.501953,-1.259766 -0.185052,-0.19827 -0.460125,-0.26894 -0.705078,-0.386719 0.109409,-0.300115 0.219738,-0.591762 0.324218,-0.951172 0.148524,-0.510922 0.271627,-1.003269 0.373047,-1.474609 0.102452,-0.476093 0.160156,-0.838367 0.160156,-1.142578 0,-0.54165 -0.149832,-1.052454 -0.447265,-1.480469 -0.321161,-0.462163 -0.865046,-0.874555 -1.658203,-1.355469 l -0.002,-0.002 c -0.802639,-0.490868 -1.329583,-0.94937 -1.574219,-1.302734 -0.252016,-0.364023 -0.38086,-0.790137 -0.38086,-1.333984 0,-0.66481 0.209989,-1.211265 0.666016,-1.722657 0.456027,-0.511391 1.177993,-0.977713 2.185547,-1.365234 2.052745,-0.790424 3.665698,-1.633623 4.851562,-2.556641 1.20002,-0.934036 1.886719,-2.017426 1.886719,-3.197265 0,-0.650062 -0.187324,-1.253862 -0.566406,-1.740235 -0.402327,-0.5161848 -1.036422,-0.787109 -1.732422,-0.787109 -0.693738,10e-8 -1.329703,0.2898094 -1.753906,0.816406 -0.371641,0.461347 -0.605443,1.075265 -0.759766,1.794922 -0.319947,0.264112 -0.638043,0.509348 -0.949219,0.716797 -0.313669,0.209115 -0.680691,0.416984 -1.074218,0.621094 0.176525,-0.337434 0.36409,-0.665317 0.49414,-1.035156 0.200196,-0.569292 0.308594,-1.104416 0.308594,-1.607422 0,-1.0238132 -0.255611,-1.9807942 -0.759766,-2.8359379 C 19.788851,7.0441181 19.10517,6.3581371 18.255859,5.8574219 17.400399,5.353084 16.441784,5.0976562 15.417969,5.0976562 Z"
     transform="matrix(1.1865549,0,0,1.1865549,-3.2597222,-3.9069922)" /><rect
     style="fill:#56c126;fill-opacity:1;stroke:none;stroke-width:2.00446;stroke-dasharray:none;stroke-opacity:1"
     id="rect2"
     width="1.8039907"
     height="2.6529276"
     x="49"
     y="13" /></svg>
